<mxfile host="app.diagrams.net" modified="2024-06-08T19:30:30.721Z" agent="Mozilla/5.0 (Windows NT 10.0; Win64; x64) AppleWebKit/537.36 (KHTML, like Gecko) Chrome/124.0.0.0 Safari/537.36 OPR/110.0.0.0" version="24.5.2" etag="x6bd0fDgKo6TuuNmtMUm" type="github">
  <diagram name="PÃ¡gina-1" id="7_FruR3VCvYtd7DHU-3F">
    <mxGraphModel>
      <root>
        <mxCell id="0" />
        <mxCell id="1" parent="0" />
      </root>
    </mxGraphModel>
  </diagram>
</mxfile>
